<?xml version="1.0" standalone="no"?>
<!DOCTYPE svg PUBLIC "-//W3C//DTD SVG 20010904//EN"
 "http://www.w3.org/TR/2001/REC-SVG-20010904/DTD/svg10.dtd">
<svg version="1.0" xmlns="http://www.w3.org/2000/svg"
 width="200.000000pt" height="200.000000pt" viewBox="0 0 200.000000 200.000000"
 preserveAspectRatio="xMidYMid meet">
<metadata>
Created by potrace 1.11, written by Peter Selinger 2001-2013
</metadata>
<g transform="translate(0.000000,200.000000) scale(0.100000,-0.100000)"
fill="#000000" stroke="none">
<path d="M1509 1961 c-2 -6 -20 -13 -39 -15 -19 -3 -35 -5 -35 -6 0 -2 -17 -6
-60 -14 -16 -3 -39 -8 -51 -10 -17 -3 -176 -35 -309 -62 -11 -2 -45 -9 -75
-16 -62 -14 -91 -16 -105 -7 -5 3 -145 5 -310 5 -346 -1 -362 -5 -428 -83 -30
-36 -38 -53 -37 -82 1 -20 1 -40 1 -46 -1 -5 -1 -109 -1 -230 1 -121 1 -226 1
-232 0 -7 0 -60 0 -118 0 -58 0 -112 0 -120 0 -8 0 -62 0 -120 0 -58 0 -112 0
-120 0 -8 0 -62 0 -120 0 -58 0 -113 -1 -122 -1 -83 4 -132 17 -160 8 -18 19
-31 23 -28 5 3 12 -4 15 -16 4 -12 26 -30 53 -42 41 -18 72 -21 242 -24 107
-2 209 -4 225 -3 35 1 106 1 120 0 26 -3 111 13 115 20 4 7 5 115 1 141 -2 15
-53 29 -70 19 -10 -5 -21 -7 -24 -4 -3 3 -23 10 -44 15 -21 5 -45 11 -53 13
-15 4 -119 53 -172 82 -27 15 -124 107 -143 136 -10 15 -22 33 -74 112 -14 22
-27 48 -27 58 -1 10 -2 19 -4 21 -1 2 -6 20 -13 50 -1 6 -6 18 -11 25 -14 23
-9 265 7 303 8 19 13 42 11 52 -1 9 3 17 9 17 5 0 8 3 4 6 -8 8 13 64 25 64 5
0 6 5 3 10 -3 6 -1 10 5 10 6 0 8 5 5 10 -3 6 -1 10 4 10 6 0 11 7 11 15 0 8
4 15 9 15 5 0 13 10 16 21 14 43 162 178 188 171 4 -1 7 2 7 6 0 13 119 70
165 79 11 2 47 6 80 9 34 4 68 13 78 22 16 14 19 14 27 2 7 -11 10 -12 10 -2
0 10 4 10 15 -2 11 -10 23 -13 38 -7 12 4 45 9 72 10 28 1 57 4 66 7 9 2 26
-5 40 -17 18 -15 32 -19 56 -14 24 4 36 1 52 -16 11 -12 31 -21 45 -21 14 0
27 -7 30 -15 3 -8 14 -13 24 -11 10 1 29 -6 44 -17 14 -11 34 -26 44 -33 11
-7 12 -10 4 -7 -8 4 -5 -2 7 -13 12 -11 19 -22 16 -26 -4 -3 2 -6 12 -6 18 0
117 -94 113 -108 -5 -17 15 -52 29 -52 9 0 13 -3 10 -7 -4 -3 -1 -16 7 -27 7
-12 17 -37 22 -56 4 -19 9 -38 10 -42 1 -5 2 -9 4 -10 1 -2 3 -12 5 -23 2 -11
6 -40 11 -65 10 -61 6 -200 -7 -226 -3 -5 -5 -18 -5 -29 1 -11 -5 -25 -13 -31
-7 -6 -13 -23 -13 -37 0 -15 -3 -25 -7 -23 -4 3 -14 -9 -24 -25 -9 -17 -11
-27 -5 -23 7 4 2 -6 -10 -23 -12 -17 -22 -36 -22 -42 0 -6 -7 -11 -15 -11 -8
0 -15 -9 -15 -20 0 -11 -5 -20 -10 -20 -14 0 -59 -51 -60 -67 0 -7 -9 -13 -21
-13 -14 0 -19 -5 -16 -14 4 -10 0 -12 -14 -9 -15 4 -18 2 -13 -12 5 -11 2 -16
-7 -14 -19 3 -50 -11 -74 -34 -27 -26 -78 -44 -139 -50 -28 -3 -34 -35 -18
-105 12 -53 16 -61 28 -51 12 10 13 9 8 -5 -3 -9 -2 -16 2 -16 5 0 150 29 322
64 269 54 315 66 328 85 9 12 20 19 25 15 13 -7 41 15 33 27 -3 5 0 9 6 9 6 0
8 5 5 10 -4 6 -3 9 2 8 4 -2 9 1 10 6 1 5 7 12 14 17 10 6 10 11 1 22 -10 11
-9 17 3 27 14 11 13 14 -2 26 -12 9 -14 13 -5 14 13 0 12 15 -1 75 -3 11 -21
101 -41 200 -20 99 -45 224 -56 277 -11 54 -22 108 -24 120 -2 13 -19 93 -36
178 -17 85 -33 166 -36 180 -2 14 -7 36 -10 50 -7 28 -8 33 -30 145 -9 44 -16
86 -17 93 0 6 -5 12 -11 12 -15 0 -43 33 -39 45 5 16 -81 57 -101 49 -11 -4
-21 -2 -26 6 -5 8 -9 9 -11 1z"/>
<path d="M900 1529 c-19 -3 -50 -9 -69 -13 -107 -21 -236 -112 -313 -222 -56
-80 -87 -180 -89 -291 -3 -165 94 -342 241 -439 54 -35 91 -50 190 -76 65 -17
85 -19 157 -9 365 46 573 410 428 746 -19 45 -107 165 -126 173 -4 2 -19 14
-35 27 -87 75 -273 126 -384 104z"/>
</g>
</svg>
